<svg id="adpearance-logo" viewBox="0 0 823.8 171.4" xmlns="http://www.w3.org/2000/svg" xmlns:xlink="http://www.w3.org/1999/xlink" xml:space="preserve">
	<path class="logo-type" fill="#FFFFFF" d="M184.3 136.3l-1.7-9.1c-5.2 8.1-15.2 10.8-22.7 10.8 -19.5 0-34.4-17.4-34.4-38.9 0-20.8 14.6-38.3 34.7-38.3 7 0 15.9 2.5 21.5 8.8V31h19.9v105.3H184.3zM181.7 85.9c-5.1-5.9-10.9-8-17.1-8 -12.8 0-18.7 11.4-18.7 21.8 0 10.8 7 21.2 18.4 21.2 6.3 0 13.1-2.4 17.4-9.7V85.9zM235.4 62.5l1.5 9.1c5.3-8 15.3-10.8 22.9-10.8 19.6 0 34.4 17.4 34.4 38.9 0 20.8-14.6 38.3-34.5 38.3 -7.2 0-16-2.4-21.6-8.8v42.3h-19.9V62.5H235.4zM238 112.9c4.9 5.9 10.8 8 17.1 8 12.8 0 18.7-11.4 18.7-21.7 0-10.9-6.9-21.2-18.4-21.2 -6.3 0-13.1 2.5-17.4 9.8V112.9zM323.6 104.3c1.4 10.1 8 17.7 18.5 17.7 9.5 0 14.5-3.9 19.2-10.9l13.1 8.8c-8.4 12.2-17.8 18.1-33.7 18.1 -22.3 0-37.3-15.6-37.3-37.8 0-22.3 16.3-39.4 37.5-39.4 20.5 0 35.6 14.5 35.6 34.1 0 2.9-0.4 6.5-1 9.4H323.6zM356.2 90.7c-0.4-8.8-6.6-14.3-14.7-14.3 -9.5 0-14.7 6-16.8 14.3H356.2zM435.8 136.3l-1.5-6.3c-4.8 5.9-12.2 8-20.1 8 -13.8 0-26.5-8.3-26.5-23.4 0-18.1 16.8-23.9 32.1-23.9 4.1 0 8.7 0.6 13.3 1.5v-1.1c0-9.3-3.8-14.9-14.6-14.9 -8.4 0-15.9 3.1-22.3 6.5l-5.3-14.3c9.4-4.6 20.8-7.6 31.7-7.6 20.5 0 30.5 11.9 30.5 31.2v44.4H435.8zM433.1 104.2c-3.8-0.8-7-1.3-10.1-1.3 -7.3 0-15.9 2.7-15.9 11.4 0 6.5 5.3 9.8 11.2 9.8 5.8 0 10.5-2.5 14.7-6.3V104.2zM486.7 72.3c4.2-6.9 10-11.5 17.3-11.5 3.6 0 6.9 0.7 9.5 1.7l-4.8 17.4c-2.1-1.1-4.5-1.7-7-1.7 -5.8 0-10.9 3.2-13.9 8.1v50h-19.9V62.5h17.3L486.7 72.3zM567.1 136.3l-1.5-6.3c-4.8 5.9-12.2 8-20.1 8 -13.8 0-26.5-8.3-26.5-23.4 0-18.1 16.9-23.9 32.1-23.9 4.1 0 8.7 0.6 13.3 1.5v-1.1c0-9.3-3.8-14.9-14.6-14.9 -8.4 0-15.9 3.1-22.3 6.5l-5.3-14.3c9.4-4.6 20.8-7.6 31.7-7.6 20.5 0 30.5 11.9 30.5 31.2v44.4H567.1zM564.4 104.2c-3.8-0.8-7-1.3-10.1-1.3 -7.3 0-15.9 2.7-15.9 11.4 0 6.5 5.3 9.8 11.2 9.8 5.8 0 10.5-2.5 14.7-6.3V104.2zM616.4 62.5l1.6 10.1c5.9-8.3 14.7-11.8 22.9-11.8 8 0 15 3.8 19.7 9.7 5.8 7.4 6.6 17 6.6 27.5v38.3h-19.9V99c0-5.5-0.1-11.7-2.2-15.9 -1.8-3.7-5.5-5.2-9.8-5.2 -5.9 0-12.3 3.4-16 9.4v49h-19.9V62.5H616.4zM743 128.9c-7.3 6.5-16 9.1-26.5 9.1 -21.8 0-37.5-15.7-37.5-38.6 0-21.5 15.6-38.6 38-38.6 10.1 0 18.7 3.1 26 9.1l-10.2 13.9c-4.1-3.8-8.6-5.9-14.3-5.9 -11.2 0-19.1 9.7-19.1 21.5 0 12.4 8.3 21.5 18.8 21.5 5.5 0 10-1.5 14.2-5.6L743 128.9zM770.9 104.3c1.4 10.1 8 17.7 18.5 17.7 9.5 0 14.5-3.9 19.2-10.9l13.1 8.8c-8.4 12.2-17.8 18.1-33.7 18.1 -22.3 0-37.3-15.6-37.3-37.8 0-22.3 16.3-39.4 37.5-39.4 20.5 0 35.6 14.5 35.6 34.1 0 2.9-0.4 6.5-1 9.4H770.9zM803.5 90.7c-0.4-8.8-6.6-14.3-14.7-14.3 -9.5 0-14.7 6-16.8 14.3H803.5z"/>
	<path class="logo-type" fill="#FFFFFF" d="M84.4 75.5l6.7 14.9 -9.8 4.4 -6.7-14.9 -9.4 6.9 -0.8-24.2c-0.3-9.8-2.6-24.2-2.6-24.2s9.3 11.2 16.5 17.9l12.1 11.2L59.5 0 0 136.9h26.3l6.2-16h53.9l6.2 16h28.7L93 74 84.4 75.5z"/>
</svg>
