<svg version="1.1" class="service-icon" viewBox="0 0 50 50" xmlns="http://www.w3.org/2000/svg" xmlns:xlink="http://www.w3.org/1999/xlink" xml:space="preserve" enable-background="new 0 0 50 50">
<g>
	<path d="M45,12c0.2,0,0.3,0,0.4,0c0.3,2.1,1.2,2.4,1.7,2.4l0,0c0.4,0,0.7,0,1,0c0,0.2,0.1,0.6,0,1.5c-0.1,1.9-0.5,2.4-0.7,2.8
		C47.2,19,47,19.4,47,20.1l0,0.1c0,0.2,0,0.4,0,0.4c0,0.1-0.3,0.3-0.5,0.5c-0.3,0.2-0.5,0.5-0.6,0.8l2.2,0c0.5-0.6,0.6-0.9,0.6-1.9
		l0-0.1c0-0.1,0-0.1,0.1-0.3c0.4-0.7,0.8-1.5,1-3.6c0.1-1.4,0-2.3-0.5-2.9c-0.5-0.5-1.1-0.5-1.7-0.5c-0.1,0-0.2,0-0.3,0
		c-0.1-0.1-0.2-0.5-0.3-1.2c-0.1-0.8-0.8-1.2-2.2-1.2c-0.9,0-2,0.2-2.8,0.4l0,0.7c0,0.5-0.3,1-0.8,1.2l-0.2,0.1
		c0.3-0.1,0.5-0.2,0.6-0.2C41.7,12.5,43.6,12,45,12z"/>
	<path d="M48.9,29c-0.8,0.6-1.5,1.1-2.2,1.6l1.3,15c-0.7,0-2,0.1-4.7,0.2c-11.6,0.3-37.2,0.5-39.5,0.2c-0.6-0.1-0.9-0.2-0.9-0.2
		c0,0,0,0,0,0c0-0.1,0-0.4,0-0.6c0.1-0.8,0.2-1.9-0.5-3.5c-0.9-2.1-0.7-2.6-0.3-3.5c0.1-0.3,0.3-0.7,0.5-1.2
		c0.4-1.3,0.3-3.6,0.3-4.5c1.8-3.3,1.7-5.4,1.6-6.1C6,20.6,5.8,17.3,5.6,16l0.7-0.5l-0.1-0.5c-0.7-3.2-0.3-4.2-0.3-4.2c0,0,0,0,0,0
		l0.2-0.2l0-1l1.3,0c0.6,0.7,1.5,1,2,1.1l0.2,0l0.1,0c0.1,0,0.1,0,0.2,0c1,0,1.5,1.3,1.7,2.5c0.5,3.3,2.7,3.6,3.7,3.6
		c1,0,1.8-0.4,1.9-0.5l0.1-0.1c0,0,1.1-0.8,2.2-0.8c0.2,0,0.4,0,0.6,0.1c0.7,0.3,1.4,0.4,2.2,0.4c1.8-0.1,3.4-0.8,3.7-1
		c0.9-0.4,2-0.8,3.3-0.8c0.3,0,0.6,0,0.9,0c0-0.2,0-0.4-0.1-0.6l-2-0.3c-0.4-0.1-0.8-0.3-1-0.6c-0.7,0.2-1.3,0.4-1.8,0.6l-0.1,0
		c0,0-1.4,0.8-2.9,0.8c-0.6,0-1.1-0.1-1.5-0.2c-0.4-0.2-0.9-0.2-1.3-0.2c-1.4,0-2.7,0.8-3,1c-0.1,0.1-0.6,0.3-1.2,0.3
		c-0.7,0-1.6-0.2-1.9-2.1c-0.6-4-2.8-4.1-3.8-4c-0.2,0-0.6-0.2-0.8-0.5L8.4,7.6L5.8,7.7L4.2,7.2L4.3,10c-0.2,0.6-0.5,1.9,0,4.7
		l-0.7,0.6l0.2,0.6c0,0,0.9,3.2-1.1,10.4l-0.1,0.2l0.1,0.2c0,0,0.4,2-1.5,5.3l-0.1,0.2l0,0.3c0,0.8,0.1,3.1-0.2,4.1
		c-0.1,0.4-0.2,0.7-0.4,1C0,39-0.3,40,0.8,42.5c0.5,1.1,0.4,2,0.4,2.6c-0.1,1.5,0.2,2.4,2.4,2.7c2.6,0.3,28.8,0.1,39.7-0.2
		c5.3-0.2,5.7-0.3,5.9-0.3l0.6-0.2l-1.5-16.8C48.6,29.8,48.8,29.4,48.9,29z"/>
	<path d="M30.6,9l-2.4,2.5l3.4,0.5c0,0,0,0.2,0,0.5c0,0.4,0.1,1.1,0.2,1.8c0.2,1.1,0.5,2.4,1.1,3l-13,5c0,0-0.3,0.2-0.7,0.2
		c-0.8,0-2.2-0.7-3.9-4.1l-2,2.4c0,0,1.7,2.6,4.5,2.7c0,0-1.6,1.6,0.8,5.3c1,1.5-2.3,2-2.3,2l-7.9,13l0.5,0.4l9-11.8c0,0,0,0,0,0
		c0.5,0,6-0.1,8.7-4.9c0,0,2.8,0.8,6,0.8c2.3,0,4.8-0.4,6.7-1.8l1.1,0.7l5.1-0.6c0,0-3.4,4.5-8.1,6.1l-0.1,0.8c0,0,0,0,0.1,0
		c0.5,0,3.2-0.3,9.9-5.3c0.6-0.4,1.2-0.9,1.9-1.4c0.3-0.2,0.5-0.4,0.8-0.6l-0.5-2.5l-2.1,0l-1.8,0l-3.5-0.1c0,0,0.2-3.1-3.1-6.5
		c-1.6-1.7-1.9-3-1.9-3.5c0-0.2,0-0.3,0-0.3l3.3-2.1l0-0.1l0.1-0.8l-2.9-0.3l-1.1-1.3l-4.1-0.3c0,0,2.9-1.7,3-5.1L34,2.3
		c0,0-0.2,4-2.3,5.1l-6.5-5l-0.9,1.1l6.3,4.2c-0.1,0-0.2,0-0.3,0C27.2,7.7,22.1,5.3,19,2l-0.8,1.5C18.2,3.5,22.1,8.3,30.6,9z"/>
</g>
</svg>
